power_kick1_modified_grf.mot
version=1
nRows=31
nColumns=19
inDegrees=yes
endheader
time	ground_force_r_vx	ground_force_r_vy	ground_force_r_vz	ground_force_r_px	ground_force_r_py	ground_force_r_pz	ground_force_l_vx	ground_force_l_vy	ground_force_l_vz	ground_force_l_px	ground_force_l_py	ground_force_l_pz	ground_torque_r_x	ground_torque_r_y	ground_torque_r_z	ground_torque_l_x	ground_torque_l_y	ground_torque_l_z
0.73000000	    0.78761944	    0.89716585	    1.91261515	    0.25107154	    0.00000000	   -0.21597244	  205.32899561	  585.68113525	  -35.91955746	   -0.57080213	    0.00000000	   -0.14226752	    0.00000000	    0.53440708	    0.00000000	    0.00000000	    8.02122251	    0.00000000	
0.73025000	    0.78597549	    0.89543766	    1.91025738	    0.25111648	    0.00000000	   -0.21598148	  206.23379621	  586.91926986	  -35.15911164	   -0.57089098	    0.00000000	   -0.14238247	    0.00000000	    0.53443429	    0.00000000	    0.00000000	    8.01747762	    0.00000000	
0.73050000	    0.78440045	    0.89378939	    1.90806225	    0.25116176	    0.00000000	   -0.21599023	  207.12976239	  588.15406110	  -34.39528147	   -0.57097939	    0.00000000	   -0.14249785	    0.00000000	    0.53450687	    0.00000000	    0.00000000	    8.01352471	    0.00000000	
0.73075000	    0.78289388	    0.89222049	    1.90602818	    0.25120736	    0.00000000	   -0.21599871	  208.01686886	  589.38544690	  -33.62815431	   -0.57106736	    0.00000000	   -0.14261364	    0.00000000	    0.53462408	    0.00000000	    0.00000000	    8.00936400	    0.00000000	
0.73100000	    0.78145580	    0.89073086	    1.90415462	    0.25125325	    0.00000000	   -0.21600692	  208.89509249	  590.61336565	  -32.85781815	   -0.57115487	    0.00000000	   -0.14272984	    0.00000000	    0.53478541	    0.00000000	    0.00000000	    8.00499572	    0.00000000	
0.73125000	    0.78008639	    0.88932055	    1.90244133	    0.25129940	    0.00000000	   -0.21601485	  209.76441230	  591.83775610	  -32.08436184	   -0.57124191	    0.00000000	   -0.14284643	    0.00000000	    0.53499037	    0.00000000	    0.00000000	    8.00042014	    0.00000000	
0.73150000	    0.77878633	    0.88799004	    1.90088892	    0.25134578	    0.00000000	   -0.21602251	  210.62480928	  593.05855668	  -31.30787515	   -0.57132849	    0.00000000	   -0.14296340	    0.00000000	    0.53523871	    0.00000000	    0.00000000	    7.99563762	    0.00000000	
0.73175000	    0.77755629	    0.88673983	    1.89949802	    0.25139236	    0.00000000	   -0.21602986	  211.47626618	  594.27570627	  -30.52844877	   -0.57141458	    0.00000000	   -0.14308074	    0.00000000	    0.53553018	    0.00000000	    0.00000000	    7.99064860	    0.00000000	
0.73200000	    0.77639684	    0.88557027	    1.89826895	    0.25143912	    0.00000000	   -0.21603691	  212.31876772	  595.48914427	  -29.74617414	   -0.57150020	    0.00000000	   -0.14319843	    0.00000000	    0.53586441	    0.00000000	    0.00000000	    7.98545359	    0.00000000	
0.73225000	    0.77530843	    0.88448158	    1.89720172	    0.25148602	    0.00000000	   -0.21604362	  213.15230062	  596.69881047	  -28.96114366	   -0.57158532	    0.00000000	   -0.14331647	    0.00000000	    0.53624097	    0.00000000	    0.00000000	    7.98005318	    0.00000000	
0.73250000	    0.77429138	    0.88347382	    1.89629608	    0.25153305	    0.00000000	   -0.21605000	  213.97685377	  597.90464519	  -28.17345060	   -0.57166994	    0.00000000	   -0.14343484	    0.00000000	    0.53665936	    0.00000000	    0.00000000	    7.97444802	    0.00000000	
0.73275000	    0.77334589	    0.88254694	    1.89555144	    0.25158016	    0.00000000	   -0.21605603	  214.79241812	  599.10658922	  -27.38318916	   -0.57175406	    0.00000000	   -0.14355353	    0.00000000	    0.53711896	    0.00000000	    0.00000000	    7.96863881	    0.00000000	
0.73300000	    0.77247204	    0.88170073	    1.89496694	    0.25162732	    0.00000000	   -0.21606170	  215.59898666	  600.30458370	  -26.59045440	   -0.57183766	    0.00000000	   -0.14367253	    0.00000000	    0.53761910	    0.00000000	    0.00000000	    7.96262631	    0.00000000	
0.73325000	    0.77166978	    0.88093487	    1.89454143	    0.25167451	    0.00000000	   -0.21606699	  216.39655427	  601.49856933	  -25.79534226	   -0.57192074	    0.00000000	   -0.14379182	    0.00000000	    0.53815900	    0.00000000	    0.00000000	    7.95641138	    0.00000000	
0.73350000	    0.77093896	    0.88024886	    1.89427344	    0.25172168	    0.00000000	   -0.21607191	  217.18511759	  602.68848688	  -24.99794939	   -0.57200328	    0.00000000	   -0.14391139	    0.00000000	    0.53873782	    0.00000000	    0.00000000	    7.94999493	    0.00000000	
0.73375000	    0.77027930	    0.87964210	    1.89416121	    0.25176881	    0.00000000	   -0.21607644	  217.96467512	  603.87427724	  -24.19837306	   -0.57208530	    0.00000000	   -0.14403122	    0.00000000	    0.53935461	    0.00000000	    0.00000000	    7.94337793	    0.00000000	
0.73400000	    0.76969040	    0.87911384	    1.89420271	    0.25181584	    0.00000000	   -0.21608058	  218.73522721	  605.05588158	  -23.39671131	   -0.57216676	    0.00000000	   -0.14415132	    0.00000000	    0.54000836	    0.00000000	    0.00000000	    7.93656144	    0.00000000	
0.73425000	    0.76917172	    0.87866319	    1.89439558	    0.25186275	    0.00000000	   -0.21608432	  219.49677603	  606.23324133	  -22.59306288	   -0.57224768	    0.00000000	   -0.14427165	    0.00000000	    0.54069796	    0.00000000	    0.00000000	    7.92954654	    0.00000000	
0.73450000	    0.76872263	    0.87828913	    1.89473719	    0.25190950	    0.00000000	   -0.21608765	  220.24932536	  607.40629851	  -21.78752730	   -0.57232804	    0.00000000	   -0.14439221	    0.00000000	    0.54142223	    0.00000000	    0.00000000	    7.92233445	    0.00000000	
0.73475000	    0.76834237	    0.87799048	    1.89522458	    0.25195604	    0.00000000	   -0.21609058	  220.99288066	  608.57499543	  -20.98020478	   -0.57240783	    0.00000000	   -0.14451298	    0.00000000	    0.54217988	    0.00000000	    0.00000000	    7.91492644	    0.00000000	
0.73500000	    0.76803005	    0.87776595	    1.89585454	    0.25200233	    0.00000000	   -0.21609309	  221.72744911	  609.73927449	  -20.17119627	   -0.57248704	    0.00000000	   -0.14463396	    0.00000000	    0.54296956	    0.00000000	    0.00000000	    7.90732391	    0.00000000	
0.73525000	    0.76778480	    0.87761424	    1.89662384	    0.25204834	    0.00000000	   -0.21609519	  222.45303950	  610.89907826	  -19.36060339	   -0.57256567	    0.00000000	   -0.14475512	    0.00000000	    0.54378996	    0.00000000	    0.00000000	    7.89952829	    0.00000000	
0.73550000	    0.76760614	    0.87753451	    1.89753019	    0.25209404	    0.00000000	   -0.21609687	  223.16966221	  612.05434949	  -18.54852848	   -0.57264371	    0.00000000	   -0.14487645	    0.00000000	    0.54464015	    0.00000000	    0.00000000	    7.89154113	    0.00000000	
0.73575000	    0.76749369	    0.87752606	    1.89857162	    0.25213940	    0.00000000	   -0.21609812	  223.87732926	  613.20503118	  -17.73507457	   -0.57272116	    0.00000000	   -0.14499794	    0.00000000	    0.54551937	    0.00000000	    0.00000000	    7.88336406	    0.00000000	
0.73600000	    0.76744733	    0.87758861	    1.89974709	    0.25218442	    0.00000000	   -0.21609895	  224.57605428	  614.35106656	  -16.92034532	   -0.57279800	    0.00000000	   -0.14511958	    0.00000000	    0.54642712	    0.00000000	    0.00000000	    7.87499879	    0.00000000	
0.73625000	    0.76746706	    0.87772207	    1.90105589	    0.25222906	    0.00000000	   -0.21609933	  225.26585258	  615.49239913	  -16.10444513	   -0.57287423	    0.00000000	   -0.14524135	    0.00000000	    0.54736304	    0.00000000	    0.00000000	    7.86644717	    0.00000000	
0.73650000	    0.76755333	    0.87792677	    1.90249832	    0.25227335	    0.00000000	   -0.21609926	  225.94674154	  616.62897231	  -15.28747894	   -0.57294984	    0.00000000	   -0.14536323	    0.00000000	    0.54832734	    0.00000000	    0.00000000	    7.85771112	    0.00000000	
0.73675000	    0.76770673	    0.87820318	    1.90407504	    0.25231730	    0.00000000	   -0.21609876	  226.61874016	  617.76072959	  -14.46955232	   -0.57302482	    0.00000000	   -0.14548522	    0.00000000	    0.54932036	    0.00000000	    0.00000000	    7.84879266	    0.00000000	
0.73700000	    0.76792810	    0.87855224	    1.90578770	    0.25236093	    0.00000000	   -0.21609780	  227.28186889	  618.88761484	  -13.65077145	   -0.57309917	    0.00000000	   -0.14560729	    0.00000000	    0.55034279	    0.00000000	    0.00000000	    7.83969389	    0.00000000	
0.73725000	    0.76821824	    0.87897486	    1.90763798	    0.25240426	    0.00000000	   -0.21609638	  227.93614953	  620.00957253	  -12.83124307	   -0.57317288	    0.00000000	   -0.14572944	    0.00000000	    0.55139531	    0.00000000	    0.00000000	    7.83041699	    0.00000000	
0.73750000	    0.76857783	    0.87947185	    1.90962727	    0.25244731	    0.00000000	   -0.21609450	  228.58160531	  621.12654704	  -12.01107440	   -0.57324595	    0.00000000	   -0.14585165	    0.00000000	    0.55247854	    0.00000000	    0.00000000	    7.82096424	    0.00000000	
